<?xml version="1.0" encoding="utf-8"?>
<!-- Generator: Adobe Illustrator 27.5.0, SVG Export Plug-In . SVG Version: 6.00 Build 0)  -->
<svg version="1.1" id="Capa_1" xmlns="http://www.w3.org/2000/svg" xmlns:xlink="http://www.w3.org/1999/xlink" x="0px" y="0px"
	 viewBox="0 0 122 44.5" style="enable-background:new 0 0 122 44.5;" xml:space="preserve">
<style type="text/css">
	.st0{fill:#FFFFFF;}
</style>
<g>
	<path class="st0" d="M44.2,44.4c0.1,0,0.3-0.1,0.4-0.1c0.7,0,1.4,0,2.1,0c0.1,0,0.2,0,0.4,0.1C46.2,44.4,45.2,44.4,44.2,44.4z"/>
	<path class="st0" d="M111.8,43.7c-0.3,0-0.5,0-0.7,0c-2.9,0-5.7,0-8.6,0c-0.3,0-0.5-0.1-0.7-0.4c-2-2.9-4.1-5.8-6.1-8.7
		c-0.9-1.2-1.7-2.5-2.6-3.7c0,0-0.1-0.1-0.1-0.1c-0.1,0.1-0.2,0.1-0.3,0.2c-0.6,0.7-1.3,1.3-1.9,2c-0.1,0.1-0.2,0.4-0.2,0.5
		c0,3.2,0,6.5,0,9.7c0,0.3-0.1,0.4-0.4,0.4c-2.5,0-5,0-7.5,0c-0.1,0-0.2,0-0.4,0c0-0.2,0-0.4,0-0.6c0-5.5,0-10.9,0-16.4
		c0-8.4,0-16.8,0-25.2c0-0.2,0-0.5,0-0.7c0-0.2,0.1-0.2,0.3-0.2c2.4,0,4.9,0,7.3,0c0,0,0.1,0,0.1,0c0.6,0,0.6,0,0.6,0.5
		c0,7.7,0,15.4,0,23c0,0.2,0,0.3,0,0.5c0,0.3,0.2,0.3,0.4,0.2c0.2-0.1,0.3-0.2,0.4-0.4c2.4-2.9,4.9-5.8,7.3-8.6
		c0.9-1.1,1.8-2.1,2.7-3.2c0.1-0.1,0.3-0.1,0.4-0.1c2.8,0,5.6,0,8.3,0c0.2,0,0.4,0,0.7,0c-4,4.5-8,8.8-12,13.2
		C103.3,31.7,107.5,37.6,111.8,43.7z"/>
	<path class="st0" d="M63.8,28.1c0,5.1,0,10.1,0,15.2c0,0.4,0,0.4-0.4,0.4c-2.5,0-5,0-7.5,0c-0.3,0-0.4-0.1-0.4-0.4
		c0-1.4,0-2.8,0-4.1c0-0.1-0.1-0.2-0.1-0.4c-0.2,0.1-0.4,0.1-0.4,0.2c-0.2,0.2-0.3,0.5-0.4,0.8c-1.3,2.2-3.2,3.6-5.7,4.2
		c-1.3,0.3-2.6,0.3-4,0.2c-1.1,0-2.1-0.2-3.1-0.6c-2.9-1-4.7-3-5.6-5.9c-0.6-1.7-0.7-3.4-0.7-5.1c0-6.4,0-12.8,0-19.3
		c0-0.1,0-0.1,0-0.2c0-0.7,0-0.7,0.7-0.7c2.4,0,4.8,0,7.2,0c0.3,0,0.4,0.1,0.4,0.4c0,5.8,0,11.6,0,17.4c0,1.2,0,2.4,0.4,3.6
		c0.6,2.1,2.2,3.4,4.4,3.5c1,0.1,2,0,3-0.3c1.9-0.6,3.1-1.9,3.7-3.7c0.3-0.9,0.4-1.7,0.4-2.7c0-5.6,0-11.3,0-16.9c0-0.4,0-0.8,0-1.2
		c0-0.2,0.1-0.3,0.3-0.3c2.6,0,5.2,0,7.7,0c0.2,0,0.2,0.1,0.2,0.3c0,0.7,0,1.4,0,2.1C63.8,19.2,63.8,23.6,63.8,28.1z"/>
	<path class="st0" d="M0,12.5c0.4,0,0.6,0,0.9,0c2.5,0,5.1,0,7.6,0c0.3,0,0.4,0.1,0.4,0.3c0.7,2.7,1.5,5.3,2.2,8
		c0.9,3.2,1.8,6.4,2.7,9.6c0.5,1.8,1,3.5,1.5,5.3c0,0.1,0.2,0.2,0.2,0.2c0.2,0,0.4,0.1,0.4-0.2c0.2-0.7,0.4-1.5,0.6-2.2
		c1.5-5.5,3-11,4.5-16.5c0.4-1.4,0.8-2.8,1.2-4.3c0.1-0.2,0.2-0.3,0.4-0.3c2.7,0,5.4,0,8,0c0.1,0,0.2,0,0.3,0
		c-0.3,0.8-0.6,1.5-0.8,2.3c-1.9,5.4-3.7,10.7-5.6,16.1c-1.4,4.1-2.8,8.1-4.2,12.2c-0.2,0.6-0.2,0.6-0.9,0.6c-2.7,0-5.5,0-8.2,0
		c-0.2,0-0.4-0.1-0.4-0.3c-2-5.9-4.1-11.8-6.2-17.7c-1.5-4.2-2.9-8.3-4.4-12.5C0.2,12.9,0.1,12.7,0,12.5z"/>
	<path class="st0" d="M77.2,43.6c-0.1,0-0.2,0-0.3,0c-2.5,0-5.1,0-7.6,0c-0.3,0-0.3-0.1-0.3-0.3c0-4.6,0-9.1,0-13.7
		c0-0.4,0-0.9,0-1.3c0-8.3,0-16.5,0-24.8c0-0.9,0-1.8,0-2.7c0-0.2,0-0.3,0.3-0.3c1.8,0,3.7,0.1,5.5,0.1c0.7,0,1.5,0,2.2-0.1
		c0.2,0,0.2,0.1,0.2,0.3c0,0.4,0,0.7,0,1.1c0,13.4,0,26.8,0,40.2C77.2,42.6,77.2,43.1,77.2,43.6z"/>
	<path class="st0" d="M122,10.8c0,2.2-1.7,3.9-4,3.9c-2.3,0-3.9-1.9-3.9-3.9c0-2.1,1.6-4,3.9-4C120.3,6.8,122.1,8.6,122,10.8z
		 M118,13.9c1.8,0,3.2-1.3,3.2-3.1c0-1.8-1.3-3.1-3.2-3.1c-1.8,0-3.1,1.3-3.1,3.1C114.9,12.5,116.2,13.9,118,13.9z"/>
	<path class="st0" d="M119.9,12.8c-0.1,0-0.1,0-0.1,0c-0.6,0.1-1-0.1-1.2-0.7c0-0.1-0.1-0.2-0.2-0.3c-0.3-0.5-0.3-0.5-1-0.5
		c0,0.4,0,0.7,0,1.1c0,0.2-0.1,0.3-0.3,0.3c-0.6-0.1-0.6,0-0.6-0.6c0-1,0-2.1,0-3.1c0-0.2,0-0.3,0.3-0.3c0.5,0,1,0,1.5,0
		c0.3,0,0.7,0.1,0.9,0.3c0.7,0.4,0.8,1.3,0.2,1.9c-0.1,0.1-0.3,0.3-0.4,0.4C119.3,11.8,119.6,12.3,119.9,12.8z M117.4,10.2
		c0,0,0,0.2,0,0.3c0,0.1,0.1,0.2,0.2,0.2c0.3,0,0.6,0.1,0.9,0c0.2-0.1,0.4-0.3,0.4-0.5c0.1-0.2-0.1-0.4-0.3-0.5
		c-0.1-0.1-0.3-0.1-0.5-0.1C117.4,9.4,117.4,9.4,117.4,10.2z"/>
</g>
</svg>
