<?xml version="1.0" encoding="utf-8"?>
<!-- Generator: Adobe Illustrator 27.5.0, SVG Export Plug-In . SVG Version: 6.00 Build 0)  -->
<svg version="1.1" id="Capa_1" xmlns="http://www.w3.org/2000/svg" xmlns:xlink="http://www.w3.org/1999/xlink" x="0px" y="0px"
	 viewBox="0 0 111 41.5" style="enable-background:new 0 0 111 41.5;" xml:space="preserve">
<g>
	<path d="M40.1,40.5c0.1,0,0.2,0,0.4,0c0.6,0,1.3,0,1.9,0c0.1,0,0.2,0,0.3,0C41.8,40.5,40.9,40.5,40.1,40.5z"/>
	<path d="M100.3,39.8c-0.3,0-0.4,0-0.6,0c-2.6,0-5.1,0-7.7,0c-0.3,0-0.4-0.1-0.6-0.3c-1.8-2.6-3.6-5.2-5.5-7.7
		c-0.8-1.1-1.6-2.2-2.3-3.3c0,0,0-0.1-0.1-0.1c-0.1,0.1-0.2,0.1-0.2,0.2c-0.6,0.6-1.1,1.2-1.7,1.8c-0.1,0.1-0.2,0.3-0.2,0.5
		c0,2.9,0,5.8,0,8.7c0,0.3-0.1,0.3-0.4,0.3c-2.2,0-4.5,0-6.7,0c-0.1,0-0.2,0-0.4,0c0-0.2,0-0.4,0-0.5c0-4.9,0-9.7,0-14.6
		c0-7.5,0-15,0-22.4c0-0.2,0-0.4,0-0.6c0-0.2,0.1-0.2,0.2-0.2c2.2,0,4.3,0,6.5,0c0,0,0.1,0,0.1,0c0.5,0,0.5,0,0.5,0.5
		c0,6.8,0,13.7,0,20.5c0,0.1,0,0.3,0,0.4c0,0.2,0.1,0.3,0.3,0.2c0.1-0.1,0.3-0.2,0.4-0.3c2.2-2.6,4.4-5.1,6.5-7.7
		c0.8-0.9,1.6-1.9,2.4-2.9c0.1-0.1,0.2-0.1,0.4-0.1c2.5,0,5,0,7.4,0c0.2,0,0.4,0,0.6,0c-3.6,4-7.2,7.9-10.7,11.8
		C92.7,29.1,96.5,34.4,100.3,39.8z"/>
	<path d="M57.5,25.9c0,4.5,0,9,0,13.6c0,0.4,0,0.4-0.4,0.4c-2.2,0-4.5,0-6.7,0c-0.3,0-0.3-0.1-0.3-0.3c0-1.2,0-2.5,0-3.7
		c0-0.1-0.1-0.2-0.1-0.3c-0.1,0.1-0.3,0.1-0.4,0.2c-0.2,0.2-0.2,0.5-0.4,0.7c-1.1,2-2.9,3.2-5.1,3.7c-1.2,0.3-2.4,0.2-3.5,0.2
		c-0.9,0-1.9-0.2-2.8-0.5c-2.6-0.9-4.2-2.7-5-5.3c-0.5-1.5-0.6-3-0.6-4.6c0-5.7,0-11.5,0-17.2c0-0.1,0-0.1,0-0.2
		c0-0.6,0-0.6,0.6-0.6c2.1,0,4.3,0,6.4,0c0.3,0,0.3,0.1,0.3,0.3c0,5.2,0,10.4,0,15.5c0,1.1,0,2.2,0.3,3.2c0.6,1.9,1.9,3,3.9,3.1
		c0.9,0.1,1.8,0,2.7-0.2c1.7-0.5,2.8-1.7,3.3-3.3c0.2-0.8,0.4-1.6,0.4-2.4c0-5,0-10,0-15c0-0.3,0-0.7,0-1c0-0.2,0.1-0.3,0.2-0.3
		c2.3,0,4.6,0,6.9,0c0.2,0,0.2,0.1,0.2,0.2c0,0.6,0,1.2,0,1.8C57.5,18,57.5,22,57.5,25.9z"/>
	<path d="M0.6,12c0.3,0,0.6,0,0.8,0c2.3,0,4.5,0,6.8,0c0.2,0,0.3,0.1,0.4,0.3c0.6,2.4,1.3,4.8,1.9,7.1c0.8,2.9,1.6,5.7,2.4,8.6
		c0.4,1.6,0.9,3.2,1.3,4.7c0,0.1,0.1,0.2,0.2,0.2c0.1,0,0.3,0.1,0.4-0.2c0.2-0.7,0.3-1.3,0.5-2c1.3-4.9,2.7-9.8,4-14.7
		c0.3-1.3,0.7-2.5,1-3.8c0.1-0.2,0.1-0.3,0.3-0.3c2.4,0,4.8,0,7.2,0c0.1,0,0.2,0,0.3,0c-0.2,0.7-0.5,1.4-0.7,2.1
		c-1.7,4.8-3.3,9.5-5,14.3c-1.3,3.6-2.5,7.2-3.8,10.9c-0.2,0.6-0.2,0.6-0.8,0.6c-2.4,0-4.9,0-7.3,0c-0.2,0-0.3-0.1-0.4-0.3
		C8.4,34.3,6.6,29,4.7,23.7C3.4,20,2.1,16.3,0.9,12.6C0.8,12.4,0.7,12.2,0.6,12z"/>
	<path d="M69.5,39.8c-0.1,0-0.2,0-0.3,0c-2.3,0-4.5,0-6.8,0c-0.2,0-0.3-0.1-0.3-0.3c0-4.1,0-8.1,0-12.2c0-0.4,0-0.8,0-1.2
		c0-7.4,0-14.7,0-22.1c0-0.8,0-1.6,0-2.4c0-0.2,0-0.3,0.2-0.3c1.6,0,3.3,0,4.9,0.1c0.7,0,1.3,0,2-0.1c0.2,0,0.2,0.1,0.2,0.2
		c0,0.3,0,0.6,0,1c0,11.9,0,23.9,0,35.8C69.5,38.9,69.5,39.3,69.5,39.8z"/>
	<path d="M109.4,10.5c0,2-1.5,3.5-3.6,3.5c-2.1,0-3.5-1.7-3.5-3.5c0-1.9,1.5-3.6,3.5-3.6C107.9,7,109.5,8.5,109.4,10.5z M105.9,13.3
		c1.6,0,2.8-1.2,2.8-2.8c0-1.6-1.2-2.8-2.8-2.8c-1.6,0-2.8,1.2-2.8,2.8C103.1,12.1,104.3,13.3,105.9,13.3z"/>
	<path d="M107.5,12.3c-0.1,0-0.1,0-0.1,0c-0.5,0.1-0.9-0.1-1.1-0.6c0-0.1-0.1-0.2-0.1-0.2c-0.3-0.5-0.3-0.5-0.9-0.4c0,0.3,0,0.7,0,1
		c0,0.2-0.1,0.3-0.3,0.3c-0.5-0.1-0.5,0-0.5-0.5c0-0.9,0-1.9,0-2.8c0-0.2,0-0.3,0.3-0.3c0.4,0,0.9,0,1.3,0c0.3,0,0.6,0.1,0.8,0.2
		c0.6,0.3,0.7,1.2,0.2,1.7c-0.1,0.1-0.3,0.2-0.4,0.4C107,11.4,107.2,11.8,107.5,12.3z M105.3,10c0,0,0,0.1,0,0.2
		c0,0.1,0.1,0.2,0.1,0.2c0.3,0,0.6,0.1,0.8,0c0.2-0.1,0.3-0.3,0.4-0.4c0.1-0.2-0.1-0.4-0.3-0.5c-0.1,0-0.3-0.1-0.4-0.1
		C105.3,9.3,105.3,9.3,105.3,10z"/>
</g>
</svg>
